<?xml version="1.0" standalone="no"?>
<!DOCTYPE svg PUBLIC "-//W3C//DTD SVG 20010904//EN"
 "http://www.w3.org/TR/2001/REC-SVG-20010904/DTD/svg10.dtd">
<svg version="1.0" xmlns="http://www.w3.org/2000/svg"
 width="500.000000pt" height="500.000000pt" viewBox="0 0 500.000000 500.000000"
 preserveAspectRatio="xMidYMid meet">

<g transform="translate(0.000000,500.000000) scale(0.100000,-0.100000)"
fill="#000000" stroke="none">
<path d="M0 2500 l0 -2500 2500 0 2500 0 0 2500 0 2500 -2500 0 -2500 0 0
-2500z m2417 691 c39 -17 81 -31 93 -31 13 0 64 15 114 32 84 30 100 33 216
33 114 -1 133 -3 219 -33 51 -18 106 -32 121 -32 15 0 66 14 115 30 195 68
421 41 531 -64 l44 -43 -15 -50 c-16 -54 -53 -143 -60 -143 -2 0 -25 13 -52
30 -73 45 -166 65 -236 50 -165 -34 -255 -199 -201 -368 22 -67 64 -117 128
-150 92 -48 233 -32 324 35 18 14 35 23 36 22 12 -14 46 -93 59 -137 l16 -52
-32 -37 c-37 -42 -127 -87 -206 -104 -93 -19 -241 -6 -345 30 -50 17 -98 31
-108 31 -10 0 -57 -14 -106 -32 -82 -30 -95 -32 -227 -32 -119 -1 -150 2 -209
22 -79 26 -114 28 -130 7 -14 -19 -157 -30 -241 -18 l-60 8 -6 55 c-10 93 -19
127 -40 154 -25 32 -68 35 -94 6 -16 -18 -17 -27 -7 -87 6 -38 14 -80 17 -95
6 -24 4 -28 -21 -35 -16 -4 -213 -8 -439 -8 -318 0 -415 3 -433 13 -12 7 -20
17 -18 21 6 10 11 940 5 960 -6 21 37 29 151 29 128 0 146 -6 140 -43 -9 -66
6 -569 20 -630 13 -59 52 -89 108 -82 70 8 83 28 93 147 11 124 30 203 73 295
104 222 282 340 501 331 74 -2 102 -8 162 -35z m-87 -1272 c0 -8 5 -8 15 1 11
9 19 10 28 1 10 -8 17 -7 25 1 15 15 16 -19 2 -57 -9 -23 -13 -25 -25 -15 -12
10 -18 10 -30 0 -12 -10 -16 -8 -25 15 -13 34 -13 65 0 65 6 0 10 -5 10 -11z
m220 1 c0 -5 -5 -10 -11 -10 -8 0 -8 -5 1 -15 10 -12 9 -16 -6 -22 -16 -6 -16
-7 2 -14 18 -6 18 -7 2 -14 -32 -13 -48 2 -48 45 0 38 2 40 30 40 17 0 30 -4
30 -10z m135 -35 c0 -36 -3 -40 -26 -43 -21 -2 -28 2 -32 20 -11 42 2 69 32
66 23 -3 26 -7 26 -43z"/>
<path d="M2814 2961 c-165 -40 -244 -243 -156 -404 47 -86 143 -137 236 -123
51 8 96 44 96 78 1 13 1 106 1 208 l0 185 -31 28 c-18 16 -42 27 -59 27 -16 0
-35 2 -43 4 -7 2 -27 1 -44 -3z"/>
<path d="M2100 2831 c-15 -28 -13 -33 13 -29 14 2 23 11 25 26 4 28 -23 30
-38 3z"/>
</g>
</svg>
